<svg width="10" height="14" viewBox="0 0 10 14" fill="none" xmlns="http://www.w3.org/2000/svg">
<path d="M4.8 4.19998V0.599976H1.2C0.88174 0.599976 0.576515 0.726404 0.351472 0.951447C0.126428 1.17649 0 1.48172 0 1.79998V12.2C0 12.5182 0.126428 12.8235 0.351472 13.0485C0.576515 13.2735 0.88174 13.4 1.2 13.4H8.4C8.71826 13.4 9.02348 13.2735 9.24853 13.0485C9.47357 12.8235 9.6 12.5182 9.6 12.2V5.39997H6C5.68174 5.39997 5.37651 5.27355 5.15147 5.0485C4.92643 4.82346 4.8 4.51823 4.8 4.19998ZM1.6 7.39997C1.6 7.29389 1.64214 7.19215 1.71716 7.11713C1.79217 7.04212 1.89391 6.99997 2 6.99997C2.10609 6.99997 2.20783 7.04212 2.28284 7.11713C2.35786 7.19215 2.4 7.29389 2.4 7.39997C2.4 7.50606 2.35786 7.6078 2.28284 7.68282C2.20783 7.75783 2.10609 7.79997 2 7.79997C1.89391 7.79997 1.79217 7.75783 1.71716 7.68282C1.64214 7.6078 1.6 7.50606 1.6 7.39997ZM1.6 8.99997C1.6 8.89389 1.64214 8.79215 1.71716 8.71713C1.79217 8.64212 1.89391 8.59997 2 8.59997C2.10609 8.59997 2.20783 8.64212 2.28284 8.71713C2.35786 8.79215 2.4 8.89389 2.4 8.99997C2.4 9.10606 2.35786 9.2078 2.28284 9.28282C2.20783 9.35783 2.10609 9.39997 2 9.39997C1.89391 9.39997 1.79217 9.35783 1.71716 9.28282C1.64214 9.2078 1.6 9.10606 1.6 8.99997ZM1.6 10.6C1.6 10.4939 1.64214 10.3921 1.71716 10.3171C1.79217 10.2421 1.89391 10.2 2 10.2C2.10609 10.2 2.20783 10.2421 2.28284 10.3171C2.35786 10.3921 2.4 10.4939 2.4 10.6C2.4 10.7061 2.35786 10.8078 2.28284 10.8828C2.20783 10.9578 2.10609 11 2 11C1.89391 11 1.79217 10.9578 1.71716 10.8828C1.64214 10.8078 1.6 10.7061 1.6 10.6ZM3.2 7.39997C3.2 7.29389 3.24214 7.19215 3.31716 7.11713C3.39217 7.04212 3.49391 6.99997 3.6 6.99997H7.6C7.70609 6.99997 7.80783 7.04212 7.88284 7.11713C7.95786 7.19215 8 7.29389 8 7.39997C8 7.50606 7.95786 7.6078 7.88284 7.68282C7.80783 7.75783 7.70609 7.79997 7.6 7.79997H3.6C3.49391 7.79997 3.39217 7.75783 3.31716 7.68282C3.24214 7.6078 3.2 7.50606 3.2 7.39997ZM3.2 8.99997C3.2 8.89389 3.24214 8.79215 3.31716 8.71713C3.39217 8.64212 3.49391 8.59997 3.6 8.59997H7.6C7.70609 8.59997 7.80783 8.64212 7.88284 8.71713C7.95786 8.79215 8 8.89389 8 8.99997C8 9.10606 7.95786 9.2078 7.88284 9.28282C7.80783 9.35783 7.70609 9.39997 7.6 9.39997H3.6C3.49391 9.39997 3.39217 9.35783 3.31716 9.28282C3.24214 9.2078 3.2 9.10606 3.2 8.99997ZM3.2 10.6C3.2 10.4939 3.24214 10.3921 3.31716 10.3171C3.39217 10.2421 3.49391 10.2 3.6 10.2H7.6C7.70609 10.2 7.80783 10.2421 7.88284 10.3171C7.95786 10.3921 8 10.4939 8 10.6C8 10.7061 7.95786 10.8078 7.88284 10.8828C7.80783 10.9578 7.70609 11 7.6 11H3.6C3.49391 11 3.39217 10.9578 3.31716 10.8828C3.24214 10.8078 3.2 10.7061 3.2 10.6ZM5.6 4.19998V0.799976L9.4 4.59998H6C5.89391 4.59998 5.79217 4.55783 5.71716 4.48282C5.64214 4.4078 5.6 4.30606 5.6 4.19998Z" fill="white"/>
</svg>
