<svg width="32" height="31" viewBox="0 0 32 31" fill="none" xmlns="http://www.w3.org/2000/svg">
<path fill-rule="evenodd" clip-rule="evenodd" d="M2.69078 2.55749L0 5.11504V16.9696V28.8241L0.167497 29.0092L0.335063 29.1943L8.60134 29.2119L16.8677 29.2294V29.8584C16.8677 30.6248 16.9605 30.8396 17.3366 30.9433C17.5181 30.9933 19.7159 31.009 24.6192 30.9953L31.6418 30.9757L31.8209 30.8157L32 30.6557V28.4688C32 26.0012 31.9821 25.8887 31.5081 25.3769C31.0093 24.8383 30.7896 24.7789 29.1575 24.7409L27.738 24.708L27.4376 22.7617C27.16 20.9626 27.1454 20.8029 27.2453 20.6504C27.7776 19.8369 27.9367 19.2911 27.8872 18.4485C27.8455 17.7373 27.6853 17.3077 27.2414 16.7164C26.8014 16.1304 25.9494 15.5853 25.285 15.4647L25.0603 15.424L25.042 7.8822L25.0239 0.340501L24.8556 0.170218L24.6873 0H15.0344H5.38162L2.69078 2.55749ZM23.8785 8.23966V15.4236L23.6182 15.4691C22.8175 15.609 21.7923 16.3759 21.3882 17.1372C20.8094 18.2279 20.8496 19.3518 21.5042 20.3808L21.7717 20.8013L21.4732 22.7217C21.3092 23.7778 21.1741 24.6642 21.1731 24.6915C21.1721 24.7187 20.5791 24.7409 19.8551 24.7409C18.3093 24.7409 17.9959 24.8137 17.5108 25.2846C17.0191 25.762 16.9132 26.0781 16.8805 27.1656L16.8523 28.1057H8.98145H1.11063V16.9888V5.87185H3.47384H5.83712L6.00746 5.70988L6.17787 5.54798V3.30176V1.05561H15.0282H23.8785V8.23966ZM5.03615 4.73212C5.01005 4.79671 4.65472 4.81624 3.50757 4.81624C2.68557 4.81624 2.01302 4.7942 2.01302 4.76728C2.01302 4.74037 2.69237 4.0721 3.52278 3.28223L5.03254 1.84607L5.05135 3.24707C5.06162 4.0176 5.05482 4.68587 5.03615 4.73212ZM10.6121 4.22292C10.5504 4.25722 10.4607 4.37506 10.4128 4.48478C10.311 4.7184 10.4144 5.04135 10.6253 5.14862C10.8234 5.24937 20.4831 5.22898 20.6221 5.12751C20.9293 4.90339 20.9508 4.53756 20.6715 4.29028C20.5227 4.15846 20.4483 4.15648 15.6225 4.15846C12.6735 4.15971 10.6798 4.18531 10.6121 4.22292ZM4.11134 8.42307C3.96647 8.47849 3.80321 8.84255 3.84771 9.01098C3.87033 9.09682 3.95689 9.22719 4.03998 9.30075C4.18999 9.43362 4.24913 9.43455 12.5108 9.43455H20.8306L21.001 9.27258C21.1084 9.17051 21.1714 9.03526 21.1714 8.90674C21.1714 8.77822 21.1084 8.64297 21.001 8.5409L20.8306 8.37893L12.5151 8.38415C7.94155 8.38698 4.15986 8.40453 4.11134 8.42307ZM4.11134 12.6455C3.96647 12.7009 3.80321 13.065 3.84771 13.2334C3.87033 13.3193 3.95689 13.4496 4.03998 13.5232C4.18999 13.6561 4.24913 13.657 12.5108 13.657H20.8306L21.001 13.495C21.2118 13.2947 21.2222 13.0105 21.0275 12.7752L20.8836 12.6014L12.5416 12.6066C7.95349 12.6094 4.15986 12.627 4.11134 12.6455ZM25.4258 16.6733C26.2923 17.042 26.8729 17.989 26.7654 18.8583C26.7108 19.2999 26.4591 19.8518 26.1694 20.1655C26.0547 20.2896 25.961 20.4635 25.961 20.5519C25.961 20.6893 26.439 23.8985 26.5531 24.5265L26.592 24.7409H24.4717C22.498 24.7409 22.3515 24.733 22.3531 24.6255C22.354 24.562 22.4926 23.6238 22.6611 22.5408C22.8577 21.2773 22.9468 20.5207 22.9098 20.4296C22.8781 20.3514 22.7564 20.1736 22.6392 20.0343C22.0721 19.36 21.9864 18.4003 22.4237 17.6205C23.0056 16.5828 24.2733 16.1828 25.4258 16.6733ZM4.03394 16.9393C3.95349 17.0028 3.86825 17.15 3.84458 17.2665C3.80856 17.4438 3.83597 17.511 4.01256 17.6789L4.22358 17.8795L10.8059 17.8773C17.7701 17.8752 17.5121 17.8867 17.6893 17.5704C17.8142 17.3475 17.7859 17.1628 17.5997 16.9858L17.4293 16.8238H10.8048C4.59773 16.8238 4.17104 16.8311 4.03394 16.9393ZM13.9176 20.0173C13.4783 20.2015 13.2699 20.6072 12.9744 21.8527C12.8611 22.3305 12.7595 22.7299 12.7486 22.7402C12.7377 22.7505 12.6429 22.444 12.5379 22.059C12.2486 20.9981 12.0929 20.6514 11.7645 20.3371C11.5086 20.0921 11.4332 20.0567 11.1675 20.0569C10.8037 20.0572 10.464 20.2363 10.2791 20.5254C10.07 20.8521 9.99337 21.4268 9.92819 23.1575C9.86815 24.7529 9.81879 25.1379 9.6683 25.1856C9.43695 25.2589 9.1622 24.6147 8.91592 23.4214C8.49437 21.3788 7.88366 20.4302 6.78615 20.1133C6.39854 20.0014 6.1894 19.9801 5.75667 20.0083C3.99271 20.1232 3.15752 21.442 3.59504 23.4214C3.75858 24.1613 3.99035 24.773 4.17284 24.9465C4.34735 25.1123 4.72198 25.1076 4.91446 24.937C5.12833 24.7477 5.16443 24.5356 5.03309 24.239C4.83207 23.7848 4.65173 22.9399 4.65125 22.4496C4.65027 21.5028 5.02414 21.1123 5.93159 21.1123C7.01793 21.1123 7.34279 21.5974 7.87575 24.0152C8.0901 24.9877 8.43856 25.7244 8.81881 26.0093C8.95861 26.114 9.23106 26.2269 9.44916 26.2703C9.80019 26.3403 9.86148 26.334 10.1584 26.1974C10.3898 26.0909 10.5364 25.962 10.6668 25.7504C10.9723 25.255 11.0431 24.8268 11.0846 23.2235C11.1057 22.4071 11.1439 21.7018 11.1695 21.6564C11.1952 21.6109 11.3323 21.9969 11.4742 22.5141C11.7786 23.6238 12.0691 24.2372 12.3569 24.3787C12.6864 24.5406 13.0124 24.5043 13.287 24.2752C13.5863 24.0254 13.7483 23.6263 13.985 22.5566C14.2241 21.4759 14.3696 21.0505 14.5276 20.9702C14.8902 20.7857 14.8755 20.2045 14.5035 20.0217C14.2653 19.9046 14.1875 19.904 13.9176 20.0173ZM30.3275 25.8827C30.4576 25.9261 30.6294 26.0452 30.7093 26.1476C30.847 26.3239 30.8558 26.4276 30.8762 28.1104L30.8976 29.8871H24.4695H18.0415L18.062 28.0779L18.0824 26.2688L18.2521 26.0972C18.3455 26.0029 18.5173 25.8993 18.6339 25.867C18.9754 25.7727 30.0418 25.7876 30.3275 25.8827ZM21.2325 27.9742C21.1707 28.0085 21.0811 28.1264 21.0332 28.2361C20.9314 28.4697 21.0348 28.7927 21.2457 28.8999C21.3203 28.9379 22.6245 28.9634 24.4866 28.9634H27.6027L27.7536 28.8107C27.9604 28.6015 27.9559 28.2405 27.7439 28.0512C27.5838 27.9083 27.5725 27.9078 24.4641 27.9098C22.6332 27.911 21.2985 27.9376 21.2325 27.9742Z" fill="white"/>
</svg>
