<svg width="44" height="30" viewBox="0 0 44 30" fill="none" xmlns="http://www.w3.org/2000/svg">
<path fill-rule="evenodd" clip-rule="evenodd" d="M10.9453 0.0889266C10.7539 0.1759 10.5703 0.473531 10.5703 0.696936C10.5703 0.7685 11.2277 1.45082 12.0312 2.21325C13.2371 3.35746 13.4922 3.63976 13.4922 3.83017C13.4922 4.02533 13.0618 4.46625 10.6992 6.69102C7.67267 9.54106 7.67095 9.54332 8.11723 9.96222C8.25387 10.0906 8.42566 10.1603 8.60501 10.1603C8.85277 10.1603 9.13584 9.92292 11.2944 7.90518L13.707 5.65008L14.1797 6.07503C14.5667 6.423 14.8081 6.55556 15.5117 6.80607C16.6052 7.19544 17.1743 7.44369 17.4453 7.64951L17.6602 7.81264L16.2307 9.168C14.6649 10.6527 14.4384 10.9662 14.3721 11.7424C14.3063 12.5127 14.5301 13.0787 15.1206 13.6355C15.6851 14.1677 16.1796 14.3561 17.0094 14.3549C17.7754 14.3538 18.2016 14.1491 19.4219 13.1961L20.4102 12.4241L21.3973 12.4218L22.3845 12.4193L23.5641 13.5247C24.65 14.5422 24.7687 14.63 25.0587 14.63C25.4376 14.63 25.6953 14.3799 25.6953 14.0123C25.6953 13.8109 25.5441 13.6229 24.8428 12.9522C24.0465 12.1908 23.991 12.1163 24.0008 11.8241C24.0091 11.5757 23.9625 11.4718 23.7743 11.3198C23.5418 11.1321 23.5043 11.1285 21.7995 11.1285C19.7996 11.1285 20.1371 11.0155 18.619 12.1929C18.0058 12.6684 17.4677 13.0197 17.2654 13.0766C16.3549 13.3327 15.4886 12.5088 15.7431 11.6288C15.8091 11.4011 16.1583 11.0188 17.2141 10.0191L18.5987 8.70804H22.0745H25.5503L26.8782 9.40189C28.1944 10.0895 28.567 10.2043 28.9059 10.0262C28.9787 9.98795 29.6399 9.41851 30.3751 8.7608L31.712 7.56487L34.3925 9.97198C35.8669 11.2959 37.4232 12.6942 37.851 13.0795L38.6289 13.7799L38.0488 14.332C37.5508 14.806 37.4688 14.9249 37.4688 15.1722C37.4688 15.4761 37.6281 15.6677 37.9596 15.7625C38.2229 15.8378 38.4575 15.7068 39.0765 15.1388C39.5765 14.6802 39.624 14.6554 39.8325 14.7446C40.1362 14.8745 40.7791 14.8644 41.0609 14.7251C41.1886 14.6621 41.902 14.0333 42.6465 13.3277C43.8029 12.2316 44 12.0088 44 11.7973C44 11.4271 43.7432 11.1769 43.3633 11.1769C43.0715 11.1769 42.9504 11.2684 41.7294 12.413L40.4106 13.6492L36.3831 10.0388C34.1679 8.05315 32.2205 6.30585 32.0556 6.15595L31.7559 5.88333L34.3974 3.4024C36.9028 1.04935 37.0391 0.906141 37.0391 0.625211C37.0391 0.398579 36.9839 0.288208 36.8041 0.155408C36.3496 -0.180224 36.2575 -0.115437 33.4472 2.51733C32.0153 3.85881 30.7617 5.07935 30.6615 5.22973C30.4497 5.54721 30.4223 6.0605 30.5962 6.45447L30.7131 6.71958L29.5711 7.75601L28.4291 8.79243L28.1579 8.63962C28.0087 8.55555 27.442 8.25518 26.8984 7.97215L25.9102 7.45749L22.5199 7.43377L19.1297 7.41005L18.6931 7.02238C18.0713 6.47028 17.6652 6.25115 16.4258 5.79869C15.5362 5.47404 15.2651 5.33543 14.9736 5.05659L14.6151 4.7137L14.7373 4.3913C14.8966 3.9716 14.8961 3.73375 14.7355 3.29122C14.6287 2.99682 14.3083 2.65255 13.033 1.46155C12.0387 0.533073 11.401 -0.00345255 11.2955 1.67215e-05C11.2038 0.0030019 11.0463 0.0430193 10.9453 0.0889266ZM0.175227 8.80397C0.0767422 8.90312 0 9.09046 0 9.23141C0 9.45143 0.240281 9.70589 1.95508 11.3018C3.75452 12.9764 3.94359 13.129 4.33022 13.218C4.56122 13.2713 4.85126 13.2941 4.97475 13.2688C5.17413 13.228 5.34961 13.3652 6.54337 14.4953L7.88743 15.7676L7.93152 16.7518C7.98033 17.8417 8.14352 18.316 8.68914 18.9534L8.96784 19.279L8.74242 19.5C8.12874 20.1016 7.97405 21.1296 8.37994 21.9085C8.71329 22.5482 9.27859 22.9283 10.1583 23.1046C10.3457 23.1421 10.4023 23.2099 10.4494 23.4531C10.6322 24.3973 11.568 25.2403 12.4395 25.2458C12.6738 25.2472 12.7188 25.2777 12.7188 25.4349C12.7188 26.3553 13.8591 27.4259 14.8395 27.4259C15.008 27.4259 15.0391 27.4674 15.0391 27.6925C15.0391 28.059 15.4163 28.7376 15.7924 29.0476C16.305 29.4701 16.7792 29.6263 17.4352 29.5887C18.2065 29.5446 18.5597 29.3645 19.4458 28.5642L20.2001 27.8827L21.2075 28.8157C22.0877 29.6309 22.2737 29.765 22.6817 29.8782C23.2641 30.0398 23.4847 30.0403 24.055 29.8813C24.8422 29.6618 25.5306 28.9254 25.6603 28.1641C25.7136 27.8506 25.7313 27.8355 26.1395 27.7533C26.3726 27.7064 26.6677 27.6165 26.7953 27.5536C27.3829 27.264 28.0097 26.384 28.0137 25.843C28.0155 25.6067 28.0382 25.5888 28.3843 25.5523C29.3739 25.4476 30.2052 24.6671 30.3168 23.738C30.3557 23.4131 30.3747 23.3918 30.6264 23.3901C31.2014 23.3863 32.0132 22.885 32.4053 22.2914C32.4973 22.1521 32.6139 21.8253 32.6642 21.5653L32.7558 21.0925L34.7685 19.1895C36.6596 17.4015 36.7812 17.2687 36.7812 16.9909C36.7812 16.615 36.5368 16.3727 36.1574 16.3727C35.9073 16.3727 35.6806 16.5577 34.0318 18.1068L32.1863 19.8408L29.7323 17.542C27.2128 15.1818 27.142 15.1295 26.6875 15.2933C26.4844 15.3664 26.2786 15.7858 26.3437 15.9935C26.3744 16.0911 27.4745 17.1876 28.7884 18.4301C30.1022 19.6725 31.22 20.7684 31.2722 20.8653C31.604 21.481 30.9429 22.2833 30.2245 22.1367C30.0227 22.0955 29.5561 21.7173 28.476 20.7192C27.1248 19.4707 26.9773 19.3579 26.6961 19.3579C26.3183 19.3579 26.0391 19.6108 26.0391 19.9532C26.0391 20.1585 26.2608 20.4058 27.4925 21.5742C28.6832 22.7036 28.9566 23.0058 29.0044 23.2452C29.1314 23.8808 28.5362 24.4386 27.8569 24.3205C27.5976 24.2755 27.2879 24.0282 26.0789 22.9011C24.8321 21.7388 24.5763 21.5363 24.3549 21.5363C23.9854 21.5363 23.7188 21.7975 23.7188 22.1593C23.7188 22.4314 23.8239 22.5528 25.1317 23.7899C25.9089 24.5251 26.5847 25.2263 26.6335 25.3484C26.8122 25.7949 26.4756 26.3923 25.9795 26.5092C25.4768 26.6277 25.2665 26.4929 23.7573 25.0844C22.5183 23.928 22.2503 23.715 22.0374 23.7172C21.6103 23.7216 21.2498 24.1188 21.3599 24.464C21.3912 24.5621 22.0701 25.262 22.8686 26.0193L24.3203 27.3961V27.7821C24.3203 28.1136 24.279 28.207 24.0281 28.4425C23.7945 28.6619 23.668 28.7168 23.3965 28.7168C22.9796 28.7168 22.6435 28.4956 21.718 27.612L21.0494 26.9736L21.1713 26.6955C21.3885 26.2004 21.4219 25.768 21.2788 25.3059C21.0063 24.4258 20.3356 23.8674 19.3373 23.6893C18.9757 23.6248 18.8201 23.5601 18.8195 23.4743C18.8176 23.2113 18.4008 22.5305 18.0702 22.2508C17.8791 22.0891 17.5875 21.9109 17.4221 21.8547C17.1383 21.7584 17.1257 21.7386 17.1974 21.5037C17.4811 20.5749 16.8768 19.438 15.8867 19.0381C15.5268 18.8928 15.3276 18.8643 14.8736 18.8934C14.5629 18.9134 14.2429 18.9566 14.1625 18.9895C14.0501 19.0356 13.9882 18.9859 13.8939 18.7742C13.3186 17.4814 11.4434 17.1137 10.2895 18.0674L9.89467 18.3936L9.67046 18.1176C9.34484 17.7168 9.28125 17.4195 9.28125 16.2977V15.294L7.82006 13.914L6.35886 12.5341L6.74077 12.1822C7.18051 11.777 7.34705 11.4592 7.27023 11.1719C7.21617 10.9697 6.83401 10.7251 6.57216 10.7251C6.4955 10.7251 6.10964 11.0155 5.71484 11.3705C5.24408 11.7937 4.92912 12.0159 4.79987 12.0159C4.65816 12.0159 4.0938 11.5399 2.79099 10.3216C1.09441 8.73515 0.959148 8.62736 0.664813 8.62736C0.452117 8.62736 0.29382 8.68448 0.175227 8.80397ZM12.4676 19.0289C12.6751 19.2238 12.7188 19.3317 12.7188 19.6503C12.7188 20.0341 12.7142 20.0402 11.7478 20.9474C10.9086 21.7353 10.739 21.859 10.4974 21.859C10.115 21.859 9.73981 21.6613 9.58349 21.3776C9.29655 20.8565 9.42734 20.6133 10.5507 19.5798C11.388 18.8093 11.414 18.7931 11.811 18.7931C12.1444 18.7931 12.2609 18.835 12.4676 19.0289ZM15.3819 20.2045C15.7399 20.3783 15.8984 20.6347 15.8984 21.0393C15.8984 21.3885 15.8778 21.4137 14.5921 22.6367C13.1648 23.9943 12.8911 24.1574 12.3765 23.9572C11.829 23.7444 11.6161 23.1786 11.8964 22.6819C12.0643 22.3845 14.2463 20.3639 14.5664 20.2094C14.89 20.0533 15.068 20.0522 15.3819 20.2045ZM17.0873 23.1213C17.1976 23.1883 17.3445 23.3704 17.4138 23.5262C17.6167 23.982 17.4682 24.2278 16.3826 25.2334C15.419 26.1259 15.4051 26.1351 15.0027 26.1351C14.668 26.1351 14.5518 26.0934 14.3449 25.8992C14.1382 25.7051 14.0938 25.5959 14.0938 25.282C14.0938 24.906 14.1064 24.8886 15.0176 24.0157C15.5256 23.529 16.0574 23.0812 16.1992 23.0206C16.4819 22.8998 16.7781 22.9334 17.0873 23.1213ZM19.5106 25.0472C19.9681 25.2693 20.1485 25.8362 19.903 26.2803C19.6843 26.6758 17.8506 28.2879 17.5485 28.3502C17.1504 28.4323 16.6703 28.1913 16.4716 27.8095C16.2099 27.3066 16.3198 27.0929 17.3484 26.105C17.8507 25.6225 18.3777 25.1597 18.5195 25.0766C18.832 24.8934 19.173 24.8833 19.5106 25.0472Z" fill="white"/>
</svg>
