<svg width="35" height="35" viewBox="0 0 35 35" fill="none" xmlns="http://www.w3.org/2000/svg">
<path fill-rule="evenodd" clip-rule="evenodd" d="M17.0981 0.0926933C16.7747 0.272003 16.7538 0.397356 16.7512 2.17192C16.7486 3.97801 16.776 4.13414 17.1229 4.29225C17.5097 4.46862 17.9476 4.35681 18.1389 4.03272C18.2366 3.86729 18.2527 3.60702 18.2527 2.19538C18.2527 1.06597 18.2272 0.494602 18.171 0.371437C18.0178 0.0348383 17.4626 -0.109389 17.0981 0.0926933ZM5.40111 4.90082C5.21134 4.96989 4.92956 5.28078 4.88889 5.4659C4.86674 5.56691 4.88075 5.73418 4.92006 5.83751C5.0144 6.08583 7.16089 8.38793 7.34382 8.4371C7.67496 8.52607 7.87689 8.47601 8.10412 8.24869C8.36047 7.99224 8.44626 7.7468 8.37687 7.46847C8.3174 7.22959 6.20324 5.07876 5.8989 4.94753C5.66839 4.84816 5.57091 4.839 5.40111 4.90082ZM28.951 5.08553C28.688 5.20583 26.5562 7.36548 26.4917 7.577C26.4244 7.79754 26.5029 8.16321 26.6452 8.2915C26.8121 8.44188 27.0975 8.50015 27.3963 8.44475C27.6095 8.40523 27.8372 8.21368 28.7622 7.29531C29.9744 6.09178 30.0865 5.91896 29.9171 5.51357C29.749 5.11091 29.3154 4.91881 28.951 5.08553ZM16.6805 7.31802C13.274 7.63369 10.1697 9.69986 8.49978 12.7629C6.93838 15.6269 6.89559 19.1729 8.38706 22.1014C9.04598 23.3951 9.66675 24.162 11.1608 25.5279C11.9926 26.2883 12.4324 26.8608 12.731 27.5718C13.0618 28.3593 13.1207 28.8781 13.1234 31.0262C13.1255 32.7874 13.1381 32.9943 13.2666 33.3856C13.5181 34.1514 14.1148 34.7673 14.7783 34.946C14.9397 34.9895 16.0242 35.0085 17.6534 34.9964C20.2417 34.9772 20.2728 34.9753 20.5954 34.8164C21.0121 34.6111 21.4758 34.1472 21.681 33.7303C21.8373 33.4129 21.8427 33.3406 21.883 31.0448C21.921 28.8817 21.937 28.6429 22.0755 28.1744C22.4014 27.0716 23.0707 26.0842 23.9998 25.3357C26.1991 23.5639 27.4486 21.174 27.6836 18.29C27.9509 15.009 26.4849 11.612 23.9046 9.53306C21.9264 7.93917 19.1531 7.08885 16.6805 7.31802ZM19.2941 8.95998C20.4039 9.18484 21.5477 9.66163 22.4569 10.2783C22.9972 10.6448 24.0533 11.6715 24.4737 12.2388C25.6302 13.7994 26.1931 15.4781 26.2049 17.4016C26.2117 18.5019 26.1276 19.106 25.8334 20.0687C25.42 21.4217 24.7073 22.5987 23.7351 23.5343C22.1972 25.0142 21.7709 25.4828 21.4148 26.0852C20.8658 27.0139 20.4402 28.2562 20.4402 28.93V29.1314L17.5179 29.1136L14.5955 29.0957L14.5511 28.6512C14.4806 27.9471 14.3074 27.3701 13.9448 26.6323C13.5572 25.8436 13.0968 25.255 12.339 24.5795C11.2199 23.5819 10.7956 23.1456 10.3886 22.574C8.81335 20.3618 8.3645 17.4143 9.22036 14.9026C9.72288 13.4278 10.4105 12.3374 11.5175 11.2599C12.9421 9.87328 14.79 9.00792 16.783 8.79407C17.3045 8.73813 18.6321 8.82581 19.2941 8.95998ZM17.0981 11.0293C16.7655 11.2244 16.6587 11.6606 16.852 12.0346C16.9973 12.3156 17.1527 12.3785 17.8701 12.4463C19.1766 12.57 20.1248 13.017 21.0555 13.9481C21.9862 14.8792 22.433 15.8277 22.5567 17.1348C22.6245 17.8524 22.6873 18.0079 22.9682 18.1532C23.3683 18.3601 23.8408 18.2184 23.9954 17.8451C24.1274 17.5264 24.0403 16.4407 23.8228 15.692C23.1884 13.5082 21.498 11.8179 19.3081 11.1776C18.5554 10.9576 17.3575 10.8771 17.0981 11.0293ZM0.35001 16.8474C-0.112853 17.104 -0.117707 17.871 0.341807 18.1426C0.507238 18.2404 0.767825 18.2565 2.18506 18.2565C3.97841 18.2565 4.13638 18.2284 4.29402 17.8823C4.47121 17.4933 4.34645 17.0162 4.024 16.8494C3.76102 16.7134 0.594875 16.7116 0.35001 16.8474ZM30.9751 16.8474C30.5123 17.104 30.5074 17.871 30.9669 18.1426C31.1324 18.2404 31.393 18.2565 32.8102 18.2565C34.6035 18.2565 34.7615 18.2284 34.9192 17.8823C35.0964 17.4933 34.9716 17.0162 34.6491 16.8494C34.3862 16.7134 31.22 16.7116 30.9751 16.8474ZM7.281 26.7287C6.92614 26.9513 4.93647 29.0144 4.88752 29.2105C4.75552 29.74 5.28537 30.1993 5.86206 30.0553C6.07103 30.0032 8.1504 27.9871 8.3118 27.6801C8.43641 27.4431 8.43464 27.2581 8.30523 27.0077C8.191 26.7867 7.88714 26.5995 7.64331 26.5999C7.55683 26.6 7.39379 26.658 7.281 26.7287ZM26.8498 26.7067C26.6446 26.8181 26.4559 27.1271 26.4559 27.3519C26.4559 27.4309 26.4999 27.5785 26.5538 27.6801C26.7014 27.9585 28.7176 29.9333 28.9384 30.0156C29.4118 30.1921 29.7836 30.0447 29.9516 29.6138C30.0877 29.2649 29.9575 29.0616 28.9248 28.0098C27.5166 26.5756 27.3195 26.4518 26.8498 26.7067ZM20.3719 31.8903V33.1461L20.1917 33.3264L20.0114 33.5067H17.5553C15.9267 33.5067 15.0527 33.4818 14.9612 33.4328C14.6932 33.2894 14.6297 32.9694 14.6297 31.765V30.6344H17.5008H20.3719V31.8903Z" fill="white"/>
</svg>
