<svg width="204" height="54" viewBox="0 0 204 54" fill="none" xmlns="http://www.w3.org/2000/svg">
<path d="M6.01623 5.43014H9.8391L19.0678 15.4538L15.0845 19.8915H6.01623V5.43014Z" fill="#FE1DB3"/>
<path d="M0 10.6784L4.55744 6.44342V10.6784H0Z" fill="#1FAAFF"/>
<path d="M16.8641 19.8915L34.8869 0.872979V19.8915H16.8641Z" fill="#1FAAFF"/>
<path d="M36.3457 0H55.7497L36.3457 18.7794V0Z" fill="#1FAAFF"/>
<path d="M48.0988 9.60797L54.6065 3.31005L56.9757 4.28695L48.0988 9.60797Z" fill="#1FAAFF"/>
<path d="M6.92151 21.3152H34.8869L26.9566 42.511L6.92151 21.3152Z" fill="#FE1DB3"/>
<path d="M34.8869 24.4434V54L25.9324 49.0895L34.8869 24.4434Z" fill="#FE1DB3"/>
<path d="M51.8363 46.6711V21.6421H47.8172V46.6711H51.8363Z" fill="white"/>
<path d="M68.9836 32.7159C67.9095 31.0149 65.7614 30.0429 63.5439 30.0429C58.9705 30.0429 55.6443 33.6532 55.6443 38.5479C55.6443 43.5815 59.1091 47.0876 63.44 47.0876C65.7614 47.0876 67.9095 45.9073 68.9836 44.1369V46.6711H73.0027V30.4595H68.9836V32.7159ZM64.2715 43.3385C61.6383 43.3385 59.6634 41.1515 59.6634 38.5479C59.6634 35.9443 61.6383 33.7921 64.2369 33.7921C66.6275 33.7921 68.9143 35.7708 68.9143 38.5479C68.9143 41.2556 66.7661 43.3385 64.2715 43.3385Z" fill="white"/>
<path d="M93.8718 40.9085L90.4417 30.4595H86.873L83.4429 40.9085L80.0128 30.4595H75.6819L81.6759 46.6711H85.0367L88.64 35.5972L92.4166 46.6711H95.812L101.633 30.4595H97.3018L93.8718 40.9085Z" fill="white"/>
<path d="M118.794 25.3912V21.6421H116.889C112.385 21.6421 110.167 24.4539 110.167 29.1056V30.4595H107.084V33.6532H110.167V46.6711H114.186V33.6532H117.79V30.4595H114.186V28.8973C114.152 26.9186 114.949 25.3912 117.686 25.3912H118.794Z" fill="white"/>
<path d="M128.039 47.0876C132.647 47.0876 136.666 43.6856 136.666 38.5479C136.666 33.4102 132.647 30.0429 128.039 30.0429C123.431 30.0429 119.446 33.4102 119.446 38.5479C119.446 43.6856 123.431 47.0876 128.039 47.0876ZM128.039 43.3385C125.544 43.3385 123.5 41.3945 123.5 38.5479C123.5 35.7708 125.544 33.7921 128.039 33.7921C130.534 33.7921 132.612 35.7708 132.612 38.5479C132.612 41.3945 130.534 43.3385 128.039 43.3385Z" fill="white"/>
<path d="M149.11 30.0429C147.1 30.0429 145.333 31.2232 144.467 33.9309V30.4595H140.448V46.6711H144.502V41.0126C144.502 36.4651 145.957 33.8268 148.59 33.8268C149.179 33.8268 150.011 33.9309 150.946 34.4169L151.743 30.5983C151.119 30.2512 150.08 30.0429 149.11 30.0429Z" fill="white"/>
<path d="M177.425 30.0429C175.797 30.0429 173.268 30.7719 171.986 33.3061C171.016 31.2579 169.11 30.0429 166.754 30.0429C164.71 30.0429 162.388 31.2579 161.938 33.4449V30.4595H157.919V46.6711H161.938V38.0272C161.938 34.9376 163.809 33.8268 165.68 33.8268C167.412 33.8268 168.764 35.2153 168.764 37.7842V46.6711H172.783V38.6521C172.783 35.4236 174.099 33.8268 176.421 33.8268C178.292 33.8268 179.643 35.1806 179.643 37.7842V46.6711H183.627V37.5759C183.627 32.8548 181.479 30.0429 177.425 30.0429Z" fill="white"/>
<path d="M204 38.4091C204 33.3408 200.362 30.0429 195.754 30.0429C191.111 30.0429 187.265 33.3755 187.265 38.5479C187.265 43.6162 190.938 47.0876 195.754 47.0876C198.699 47.0876 201.575 45.7685 203.065 43.4079L200.362 41.3598C199.427 42.6789 197.729 43.4426 195.996 43.4426C193.571 43.4426 191.839 42.2276 191.388 39.9712H203.931C203.965 39.3811 204 38.8603 204 38.4091ZM191.388 37.1593C191.873 34.6946 193.64 33.6185 195.789 33.6185C198.041 33.6185 199.773 34.9376 200.016 37.1593H191.388Z" fill="white"/>
</svg>
