<svg width="21" height="21" viewBox="0 0 21 21" fill="none" xmlns="http://www.w3.org/2000/svg">
<path fill-rule="evenodd" clip-rule="evenodd" d="M8.03612 7.59537H11.5954V9.36829C12.1081 8.34862 13.4229 7.43246 15.398 7.43246C19.1844 7.43246 20.0833 9.46221 20.0833 13.1863V20.0834H16.25V14.0344C16.25 11.9136 15.7373 10.7176 14.432 10.7176C12.6217 10.7176 11.8694 12.0066 11.8694 14.0335V20.0834H8.03612V7.59537ZM1.46291 19.9205H5.29624V7.43246H1.46291V19.9205ZM5.84537 3.3605C5.84551 3.6818 5.78179 3.99993 5.6579 4.29639C5.53402 4.59286 5.35245 4.86174 5.12374 5.08742C4.66029 5.54801 4.03297 5.80583 3.37957 5.80425C2.72732 5.80381 2.10145 5.54665 1.63732 5.08837C1.40944 4.86193 1.22848 4.59275 1.10482 4.29625C0.981154 3.99974 0.917211 3.68176 0.916656 3.3605C0.916656 2.71171 1.17541 2.09071 1.63828 1.63262C2.102 1.17373 2.72814 0.916461 3.38053 0.916748C4.03412 0.916748 4.66086 1.17454 5.12374 1.63262C5.58566 2.09071 5.84537 2.71171 5.84537 3.3605Z" fill="#1FAAFF"/>
</svg>
