<svg width="33" height="27" viewBox="0 0 33 27" fill="none" xmlns="http://www.w3.org/2000/svg">
<path fill-rule="evenodd" clip-rule="evenodd" d="M11.9097 0.141093C11.2487 0.399855 10.8742 0.764788 10.6202 1.39796C10.5215 1.644 10.4941 1.86607 10.4941 2.42102V3.12979L10.7137 3.33773C10.8936 3.50812 10.9822 3.54567 11.2042 3.54567C11.5311 3.54567 11.8223 3.39516 11.9073 3.18233C11.9417 3.09628 11.9829 2.77171 11.9988 2.46121C12.0293 1.86466 12.112 1.66095 12.3831 1.51429C12.4971 1.45264 13.3837 1.4357 16.5028 1.4357C20.1793 1.4357 20.4902 1.44371 20.6498 1.54273C20.9099 1.70412 20.9709 1.86509 21.0019 2.47166C21.0174 2.77648 21.0583 3.09628 21.0927 3.18233C21.1777 3.39516 21.4689 3.54567 21.7958 3.54567C22.019 3.54567 22.1063 3.50818 22.2915 3.33284L22.5162 3.12001L22.4949 2.33901C22.476 1.64633 22.4543 1.51894 22.3026 1.21259C22.0848 0.772739 21.6883 0.397225 21.2238 0.190998L20.8591 0.0290502L16.5646 0.0145557L12.2701 0L11.9097 0.141093ZM1.73428 5.0155C1.0828 5.13855 0.474722 5.59809 0.158865 6.20607L0 6.51186V9.35574V12.1996L0.172427 12.548C0.381018 12.9694 0.799168 13.3795 1.21428 13.5699C1.40957 13.6593 3.69174 14.168 7.49294 14.9691L13.4648 16.2276L13.4652 17.3633C13.4655 18.635 13.5139 18.8954 13.7837 19.0773C13.9628 19.1981 14.0548 19.2023 16.5 19.2023C18.9452 19.2023 19.0372 19.1981 19.2163 19.0773C19.4861 18.8954 19.5344 18.635 19.5348 17.3633L19.5352 16.2276L25.5071 14.9691C29.3083 14.168 31.5904 13.6593 31.7857 13.5699C32.2008 13.3795 32.619 12.9694 32.8276 12.548L33 12.1996V9.35574V6.51186L32.8415 6.20607C32.6077 5.75484 32.1888 5.36251 31.7235 5.15903L31.3209 4.9829L16.6614 4.97391C8.59873 4.96895 1.88152 4.98767 1.73428 5.0155ZM31.081 6.48587C31.487 6.61987 31.4824 6.58703 31.4824 9.3566C31.4824 12.0788 31.4763 12.1296 31.1318 12.2783C30.9765 12.3452 19.7825 14.7378 19.6248 14.7378C19.583 14.7377 19.5392 14.5753 19.5201 14.35C19.4839 13.923 19.3608 13.6927 19.1115 13.5851C18.8816 13.4859 14.1184 13.4859 13.8885 13.5851C13.6392 13.6927 13.5161 13.923 13.48 14.35C13.4608 14.5753 13.417 14.7377 13.3752 14.7378C13.1851 14.7379 1.99175 12.3348 1.8429 12.2619C1.52517 12.1063 1.51748 12.0371 1.51903 9.33758C1.52065 6.5784 1.51316 6.63351 1.90509 6.48789C2.14067 6.40031 30.8159 6.39835 31.081 6.48587ZM1.13634 14.9985C1.05096 15.0401 0.92019 15.1518 0.84573 15.2468C0.710888 15.4188 0.710372 15.4391 0.710372 20.3841V25.3487L0.86562 25.7138C1.05025 26.148 1.52452 26.6211 2.00196 26.8471L2.32485 27H16.5H30.6751L30.998 26.8471C31.4755 26.6211 31.9497 26.148 32.1344 25.7138L32.2896 25.3487L32.3095 20.6089C32.3205 18.002 32.3115 15.7523 32.2895 15.6095C32.2104 15.0955 31.7638 14.8237 31.2583 14.9817C30.7782 15.1318 30.8081 14.8064 30.772 20.2698C30.7367 25.6294 30.7586 25.3532 30.3541 25.5151C30.066 25.6304 2.93396 25.6304 2.64594 25.5151C2.24135 25.3532 2.26331 25.6291 2.22798 20.2726C2.20215 16.3568 2.17852 15.3514 2.1098 15.2371C1.95068 14.9727 1.44432 14.8486 1.13634 14.9985ZM17.9853 16.389V17.7956H16.5H15.0147V16.389V14.9823H16.5H17.9853V16.389Z" fill="url(#paint0_linear_3691_2768)"/>
<defs>
<linearGradient id="paint0_linear_3691_2768" x1="16.5" y1="0" x2="16.5" y2="27" gradientUnits="userSpaceOnUse">
<stop stop-color="#FF17B3"/>
<stop offset="1" stop-color="#DA189B"/>
</linearGradient>
</defs>
</svg>
