<svg width="20" height="17" viewBox="0 0 20 17" fill="none" xmlns="http://www.w3.org/2000/svg">
<path d="M9.00051 4.24985C9.00051 2.18735 10.7349 0.471728 12.7974 0.499853C13.5197 0.508192 14.2242 0.724964 14.8262 1.12411C15.4283 1.52326 15.9022 2.08779 16.1911 2.74985H19.5005L16.4724 5.77798C16.277 8.81976 14.9305 11.673 12.7066 13.7575C10.4828 15.842 7.54856 17.0014 4.50051 16.9999C1.50051 16.9999 0.750506 15.8749 0.750506 15.8749C0.750506 15.8749 3.75051 14.7499 5.25051 12.4999C5.25051 12.4999 -0.749494 9.49985 0.750506 1.24985C0.750506 1.24985 4.50051 4.99985 9.00051 5.74985V4.24985Z" fill="#1FAAFF"/>
</svg>
